<mxfile host="app.diagrams.net" modified="2021-04-20T14:42:45.775Z" agent="5.0 (Windows NT 10.0; Win64; x64) AppleWebKit/537.36 (KHTML, like Gecko) Chrome/89.0.4389.86 YaBrowser/21.3.1.185 Yowser/2.5 Safari/537.36" etag="pTUnRXDYnIwv-PwL7PsR" version="14.6.1" type="github">
  <diagram id="j34FRPcEOkHufMdPhOTs" name="Page-1">
    <mxGraphModel dx="1374" dy="789" grid="1" gridSize="10" guides="1" tooltips="1" connect="1" arrows="1" fold="1" page="1" pageScale="1" pageWidth="827" pageHeight="1169" math="0" shadow="0">
      <root>
        <mxCell id="0" />
        <mxCell id="1" parent="0" />
        <mxCell id="h_iCBU0srES86EDU6NRn-3" style="edgeStyle=orthogonalEdgeStyle;rounded=0;orthogonalLoop=1;jettySize=auto;html=1;exitX=0.5;exitY=1;exitDx=0;exitDy=0;" edge="1" parent="1" source="h_iCBU0srES86EDU6NRn-1" target="h_iCBU0srES86EDU6NRn-4">
          <mxGeometry relative="1" as="geometry">
            <mxPoint x="400" y="160" as="targetPoint" />
          </mxGeometry>
        </mxCell>
        <mxCell id="h_iCBU0srES86EDU6NRn-1" value="" style="ellipse;whiteSpace=wrap;html=1;" vertex="1" parent="1">
          <mxGeometry x="340" y="20" width="120" height="80" as="geometry" />
        </mxCell>
        <mxCell id="h_iCBU0srES86EDU6NRn-2" value="Начало&lt;br&gt;" style="text;html=1;resizable=0;autosize=1;align=center;verticalAlign=middle;points=[];fillColor=none;strokeColor=none;rounded=0;" vertex="1" parent="1">
          <mxGeometry x="370" y="50" width="60" height="20" as="geometry" />
        </mxCell>
        <mxCell id="h_iCBU0srES86EDU6NRn-6" style="edgeStyle=orthogonalEdgeStyle;rounded=0;orthogonalLoop=1;jettySize=auto;html=1;" edge="1" parent="1" source="h_iCBU0srES86EDU6NRn-4">
          <mxGeometry relative="1" as="geometry">
            <mxPoint x="400" y="320" as="targetPoint" />
          </mxGeometry>
        </mxCell>
        <mxCell id="h_iCBU0srES86EDU6NRn-4" value="" style="shape=parallelogram;perimeter=parallelogramPerimeter;whiteSpace=wrap;html=1;fixedSize=1;" vertex="1" parent="1">
          <mxGeometry x="340" y="150" width="120" height="60" as="geometry" />
        </mxCell>
        <mxCell id="h_iCBU0srES86EDU6NRn-5" value="Ввод number" style="text;html=1;resizable=0;autosize=1;align=center;verticalAlign=middle;points=[];fillColor=none;strokeColor=none;rounded=0;" vertex="1" parent="1">
          <mxGeometry x="355" y="170" width="90" height="20" as="geometry" />
        </mxCell>
        <mxCell id="h_iCBU0srES86EDU6NRn-12" style="edgeStyle=orthogonalEdgeStyle;rounded=0;orthogonalLoop=1;jettySize=auto;html=1;exitX=0.5;exitY=1;exitDx=0;exitDy=0;entryX=0.5;entryY=0;entryDx=0;entryDy=0;" edge="1" parent="1" source="h_iCBU0srES86EDU6NRn-7" target="h_iCBU0srES86EDU6NRn-11">
          <mxGeometry relative="1" as="geometry" />
        </mxCell>
        <mxCell id="h_iCBU0srES86EDU6NRn-7" value="" style="rounded=0;whiteSpace=wrap;html=1;" vertex="1" parent="1">
          <mxGeometry x="340" y="320" width="120" height="60" as="geometry" />
        </mxCell>
        <mxCell id="h_iCBU0srES86EDU6NRn-13" style="edgeStyle=orthogonalEdgeStyle;rounded=0;orthogonalLoop=1;jettySize=auto;html=1;exitX=0.5;exitY=1;exitDx=0;exitDy=0;" edge="1" parent="1" source="h_iCBU0srES86EDU6NRn-11" target="h_iCBU0srES86EDU6NRn-14">
          <mxGeometry relative="1" as="geometry">
            <mxPoint x="400" y="570" as="targetPoint" />
          </mxGeometry>
        </mxCell>
        <mxCell id="h_iCBU0srES86EDU6NRn-11" value="" style="rounded=0;whiteSpace=wrap;html=1;" vertex="1" parent="1">
          <mxGeometry x="320" y="440" width="160" height="60" as="geometry" />
        </mxCell>
        <mxCell id="h_iCBU0srES86EDU6NRn-19" style="edgeStyle=orthogonalEdgeStyle;rounded=0;orthogonalLoop=1;jettySize=auto;html=1;" edge="1" parent="1" source="h_iCBU0srES86EDU6NRn-14">
          <mxGeometry relative="1" as="geometry">
            <mxPoint x="400" y="690" as="targetPoint" />
          </mxGeometry>
        </mxCell>
        <mxCell id="h_iCBU0srES86EDU6NRn-14" value="" style="rounded=0;whiteSpace=wrap;html=1;" vertex="1" parent="1">
          <mxGeometry x="340" y="560" width="120" height="60" as="geometry" />
        </mxCell>
        <mxCell id="h_iCBU0srES86EDU6NRn-15" value="Calc1 = number % 10" style="text;html=1;resizable=0;autosize=1;align=center;verticalAlign=middle;points=[];fillColor=none;strokeColor=none;rounded=0;" vertex="1" parent="1">
          <mxGeometry x="335" y="340" width="130" height="20" as="geometry" />
        </mxCell>
        <mxCell id="h_iCBU0srES86EDU6NRn-16" value="Calc2 = number % 100 // 10&amp;nbsp;" style="text;html=1;resizable=0;autosize=1;align=center;verticalAlign=middle;points=[];fillColor=none;strokeColor=none;rounded=0;" vertex="1" parent="1">
          <mxGeometry x="315" y="460" width="170" height="20" as="geometry" />
        </mxCell>
        <mxCell id="h_iCBU0srES86EDU6NRn-17" value="Calc3 = number // 100" style="text;html=1;resizable=0;autosize=1;align=center;verticalAlign=middle;points=[];fillColor=none;strokeColor=none;rounded=0;" vertex="1" parent="1">
          <mxGeometry x="335" y="580" width="130" height="20" as="geometry" />
        </mxCell>
        <mxCell id="h_iCBU0srES86EDU6NRn-21" style="edgeStyle=orthogonalEdgeStyle;rounded=0;orthogonalLoop=1;jettySize=auto;html=1;exitX=1;exitY=0.25;exitDx=0;exitDy=0;" edge="1" parent="1" source="h_iCBU0srES86EDU6NRn-18">
          <mxGeometry relative="1" as="geometry">
            <mxPoint x="470" y="705" as="targetPoint" />
          </mxGeometry>
        </mxCell>
        <mxCell id="h_iCBU0srES86EDU6NRn-22" style="edgeStyle=orthogonalEdgeStyle;rounded=0;orthogonalLoop=1;jettySize=auto;html=1;" edge="1" parent="1" source="h_iCBU0srES86EDU6NRn-18" target="h_iCBU0srES86EDU6NRn-23">
          <mxGeometry relative="1" as="geometry">
            <mxPoint x="400" y="830" as="targetPoint" />
          </mxGeometry>
        </mxCell>
        <mxCell id="h_iCBU0srES86EDU6NRn-18" value="" style="rounded=0;whiteSpace=wrap;html=1;" vertex="1" parent="1">
          <mxGeometry x="320" y="690" width="160" height="70" as="geometry" />
        </mxCell>
        <mxCell id="h_iCBU0srES86EDU6NRn-20" value="sum = calc1 + calc2 + calc3" style="text;html=1;resizable=0;autosize=1;align=center;verticalAlign=middle;points=[];fillColor=none;strokeColor=none;rounded=0;" vertex="1" parent="1">
          <mxGeometry x="320" y="710" width="160" height="20" as="geometry" />
        </mxCell>
        <mxCell id="h_iCBU0srES86EDU6NRn-32" style="edgeStyle=orthogonalEdgeStyle;rounded=0;orthogonalLoop=1;jettySize=auto;html=1;entryX=0.5;entryY=0;entryDx=0;entryDy=0;" edge="1" parent="1" source="h_iCBU0srES86EDU6NRn-23" target="h_iCBU0srES86EDU6NRn-31">
          <mxGeometry relative="1" as="geometry" />
        </mxCell>
        <mxCell id="h_iCBU0srES86EDU6NRn-23" value="" style="rounded=0;whiteSpace=wrap;html=1;" vertex="1" parent="1">
          <mxGeometry x="320" y="820" width="160" height="60" as="geometry" />
        </mxCell>
        <mxCell id="h_iCBU0srES86EDU6NRn-24" value="work = calc1 * calc2 * calc3&amp;nbsp;" style="text;html=1;resizable=0;autosize=1;align=center;verticalAlign=middle;points=[];fillColor=none;strokeColor=none;rounded=0;" vertex="1" parent="1">
          <mxGeometry x="320" y="840" width="160" height="20" as="geometry" />
        </mxCell>
        <mxCell id="h_iCBU0srES86EDU6NRn-31" value="" style="shape=parallelogram;perimeter=parallelogramPerimeter;whiteSpace=wrap;html=1;fixedSize=1;" vertex="1" parent="1">
          <mxGeometry x="340" y="930" width="120" height="60" as="geometry" />
        </mxCell>
        <mxCell id="h_iCBU0srES86EDU6NRn-34" style="edgeStyle=orthogonalEdgeStyle;rounded=0;orthogonalLoop=1;jettySize=auto;html=1;" edge="1" parent="1">
          <mxGeometry relative="1" as="geometry">
            <mxPoint x="400" y="1040" as="targetPoint" />
            <mxPoint x="400" y="990" as="sourcePoint" />
          </mxGeometry>
        </mxCell>
        <mxCell id="h_iCBU0srES86EDU6NRn-33" value="Вывод sum work" style="text;html=1;resizable=0;autosize=1;align=center;verticalAlign=middle;points=[];fillColor=none;strokeColor=none;rounded=0;" vertex="1" parent="1">
          <mxGeometry x="345" y="950" width="110" height="20" as="geometry" />
        </mxCell>
        <mxCell id="h_iCBU0srES86EDU6NRn-35" value="" style="ellipse;whiteSpace=wrap;html=1;" vertex="1" parent="1">
          <mxGeometry x="340" y="1040" width="120" height="80" as="geometry" />
        </mxCell>
        <mxCell id="h_iCBU0srES86EDU6NRn-36" value="Конец" style="text;html=1;resizable=0;autosize=1;align=center;verticalAlign=middle;points=[];fillColor=none;strokeColor=none;rounded=0;" vertex="1" parent="1">
          <mxGeometry x="375" y="1070" width="50" height="20" as="geometry" />
        </mxCell>
      </root>
    </mxGraphModel>
  </diagram>
</mxfile>
